<svg width="213" height="44" viewBox="0 0 213 44" fill="none" xmlns="http://www.w3.org/2000/svg"><path d="M18.549 23.65a.748.748 0 00-.753.744v.383l.001.018c.079 1.549 1.26 3.1 3.27 3.253l.03.002h.396a.748.748 0 00.752-.744.748.748 0 00-.752-.744h-.337c-1.156-.1-1.803-.96-1.855-1.824v-.344a.748.748 0 00-.752-.744z" fill="#fff"/><path fill-rule="evenodd" clip-rule="evenodd" d="M20.612 11.626c-3.889.17-6.895 3.327-7.09 7.172-.098 1.928-.175 3.652-.175 5.255 0 1.495.067 2.992.155 4.713.197 3.826 3.198 6.954 7.068 7.126.586.026 1.154.041 1.675.041.538 0 1.125-.016 1.731-.044 3.845-.174 6.835-3.266 7.024-7.067.083-1.655.144-3.134.144-4.769 0-1.825-.068-3.51-.157-5.328-.188-3.813-3.18-6.923-7.037-7.096a38.54 38.54 0 00-1.705-.042c-.509 0-1.062.014-1.633.04zm-4.928 7.613c.148-2.931 2.398-5.325 5.296-5.457.443-.02.872-.032 1.265-.032.414 0 .866.013 1.332.035 2.868.136 5.103 2.485 5.242 5.385.013.276.026.512.037.726.038.724.063 1.198.063 2.182 0 .97-.027 1.522-.068 2.352-.007.134-.014.275-.021.425-.139 2.89-2.372 5.222-5.229 5.359-.474.022-.935.036-1.356.036-.405 0-.848-.013-1.304-.034-2.88-.134-5.126-2.501-5.272-5.414-.01-.19-.019-.364-.027-.527v-.001c-.042-.802-.07-1.337-.07-2.196 0-.826.026-1.279.065-1.967.014-.25.03-.531.047-.872z" fill="#fff"/><path fill-rule="evenodd" clip-rule="evenodd" d="M12.7 2.75h19.092c4.19 0 5.273.43 6.32.984 1.13.597 2 1.457 2.604 2.575.56 1.035.994 2.106.994 6.25v.653c0 .3-.243.544-.546.557-.094.004-.188.008-.283.013-2.536.132-4.505 2.526-4.634 5.457-.015.339-.029.619-.041.868v.004c-.035.688-.057 1.141-.057 1.967 0 .859.024 1.394.061 2.196.007.163.015.338.024.528.128 2.913 2.093 5.28 4.613 5.414.106.006.212.01.317.015a.564.564 0 01.546.557v.653c0 4.144-.435 5.215-.994 6.25a6.188 6.188 0 01-2.604 2.575c-1.047.554-2.13.984-6.32.984H12.699c-4.19 0-5.273-.43-6.32-.983a6.188 6.188 0 01-2.604-2.576c-.56-1.035-.994-2.106-.994-6.25v-.653c0-.3.243-.544.546-.557.12-.005.24-.01.362-.017 2.5-.137 4.454-2.47 4.575-5.359.006-.148.012-.287.018-.418v-.007c.036-.83.06-1.382.06-2.352 0-.984-.022-1.459-.055-2.183-.01-.213-.02-.448-.032-.725-.122-2.9-2.078-5.25-4.587-5.385a28.038 28.038 0 00-.34-.016.564.564 0 01-.547-.557v-.653c0-4.144.434-5.215.994-6.25A6.187 6.187 0 016.38 3.734c1.047-.554 2.13-.984 6.32-.984zm7.828 6.971c-4.952.216-8.69 4.223-8.932 8.981-.098 1.928-.177 3.695-.177 5.351 0 1.548.07 3.087.158 4.81.243 4.745 3.984 8.715 8.907 8.934.605.026 1.203.043 1.761.043.576 0 1.194-.018 1.82-.046 4.886-.222 8.625-4.145 8.861-8.878.083-1.664.146-3.18.146-4.863 0-1.872-.07-3.592-.16-5.42-.233-4.742-3.97-8.688-8.874-8.908a40.524 40.524 0 00-1.793-.045c-.544 0-1.127.016-1.718.041z" fill="#fff"/><path d="M173.083 10.906c-.837.818-2.091 1.171-3.74 1.171-1.645 0-2.933-.353-3.745-1.17-.837-.788-1.219-1.998-1.219-3.558V7.15h2.678v.2c0 .836.186 1.374.499 1.668l.01.01c.318.324.905.484 1.772.484.866 0 1.424-.16 1.743-.484l.009-.01c.323-.294.534-.837.534-1.669V7.15h2.678v.2c0 1.564-.416 2.774-1.219 3.556z" fill="#fff"/><path fill-rule="evenodd" clip-rule="evenodd" d="M155.592 26.645c.259-.354.435-.797.558-1.385l.039-.165h3.113l-.034.23c-.157 1.006-.445 1.868-.906 2.566a5.24 5.24 0 01-1.689 1.718c-.68.429-1.454.723-2.315.917-.896.194-1.851.26-2.893.26-1.298 0-2.443-.13-3.466-.424a6.064 6.064 0 01-2.649-1.415c-.714-.668-1.263-1.56-1.649-2.666-.387-1.08-.578-2.441-.578-4.05 0-1.644.186-3.04.573-4.15.382-1.106.93-2.028 1.645-2.726l.004-.005c.71-.657 1.587-1.15 2.615-1.444h.005a13.881 13.881 0 013.431-.419c2.414 0 4.342.618 5.767 1.868 1.4 1.266 2.1 3.174 2.1 5.7v2.337h-13.002c.019.916.166 1.679.392 2.247a3.487 3.487 0 001.037 1.45c.441.363.975.602 1.606.727.646.124 1.356.19 2.159.19.622 0 1.175-.03 1.723-.125h.01a4.165 4.165 0 001.376-.429l.004-.005h.005c.402-.174.72-.438 1.019-.802zm-7.779-9.476c-.441.329-.798.782-1.067 1.39-.25.563-.402 1.27-.451 2.177h9.781c-.014-.847-.137-1.524-.357-2.087-.24-.613-.539-1.062-.945-1.42a3.86 3.86 0 00-1.454-.728 9.173 9.173 0 00-1.929-.219c-.739 0-1.385.065-1.997.19a3.914 3.914 0 00-1.581.697z" fill="#fff"/><path d="M181.332 24.926a28.58 28.58 0 00.122-2.59v-8.36h13.11v16.34h-3.148v-13.55h-6.907v5.953c0 2.566-.377 4.489-1.092 5.714-.734 1.286-1.934 1.884-3.554 1.884h-.695v-2.95h.196c.391 0 .7-.064.94-.199l.009-.005.005-.005c.225-.1.451-.344.627-.702.171-.354.294-.837.387-1.53zM138.066 24.881c-.122.648-.333 1.161-.592 1.55a3.413 3.413 0 01-1.004.961 4.11 4.11 0 01-1.375.483 9.998 9.998 0 01-1.724.125c-.837 0-1.571-.065-2.212-.22-.661-.154-1.19-.423-1.596-.836l-.005-.005c-.441-.419-.769-.991-1.014-1.734-.239-.737-.367-1.734-.367-2.964 0-1.26.123-2.262.367-3.064.245-.777.573-1.38 1.014-1.794l.005-.005c.406-.413.935-.687 1.596-.837a9.444 9.444 0 012.212-.249c.578 0 1.131.06 1.63.125.48.094.926.244 1.342.483.382.24.71.543 1.008.937.265.388.475.872.593 1.484l.029.16h3.153l-.044-.235c-.191-1.066-.48-1.987-.935-2.72a6.206 6.206 0 00-1.65-1.778l-.005-.005a6.89 6.89 0 00-2.286-.952 13.137 13.137 0 00-2.83-.289c-1.302 0-2.443.16-3.461.419h-.005c-1.028.294-1.933.787-2.648 1.445l-.005.005c-.715.697-1.263 1.619-1.645 2.725-.387 1.11-.573 2.506-.573 4.15 0 1.609.191 2.97.573 4.05.382 1.106.935 1.998 1.65 2.666a6.06 6.06 0 002.648 1.415c1.023.294 2.169.423 3.466.423 1.048 0 2.002-.095 2.893-.289a6.676 6.676 0 002.321-.986c.685-.464 1.233-1.057 1.689-1.814.455-.732.744-1.654.905-2.755l.035-.23h-3.114l-.039.155zM209.847 24.881l.03-.164v.01H213l-.034.229c-.162 1.101-.451 2.023-.906 2.755-.455.757-1.003 1.35-1.689 1.814a6.671 6.671 0 01-2.32.986c-.891.194-1.846.289-2.893.289-1.298 0-2.443-.13-3.466-.424a6.063 6.063 0 01-2.649-1.414c-.715-.668-1.263-1.56-1.65-2.666-.381-1.08-.572-2.441-.572-4.05 0-1.644.186-3.04.572-4.15.382-1.106.931-2.028 1.645-2.726l.005-.004c.715-.658 1.621-1.151 2.649-1.445h.004a13.93 13.93 0 013.462-.419c1.013 0 1.938.095 2.829.29.867.194 1.64.522 2.286.95l.005.006a6.192 6.192 0 011.65 1.778c.455.733.744 1.654.935 2.72l.044.235h-3.153l-.029-.16a3.916 3.916 0 00-.592-1.484 3.752 3.752 0 00-1.009-.937 4.326 4.326 0 00-1.341-.483 12.643 12.643 0 00-1.63-.125c-.833 0-1.572.095-2.213.25-.661.149-1.19.423-1.596.836l-.005.005c-.44.414-.768 1.017-1.013 1.794-.245.802-.367 1.803-.367 3.064 0 1.23.127 2.227.367 2.964.245.743.573 1.315 1.013 1.734l.005.005c.406.413.935.682 1.596.837.641.154 1.376.22 2.213.22.621 0 1.175-.03 1.723-.126a4.11 4.11 0 001.375-.483c.382-.239.705-.538 1.004-.961.259-.389.47-.902.592-1.55z" fill="#fff"/><path fill-rule="evenodd" clip-rule="evenodd" d="M120.374 14.872c-1.297-.926-3.099-1.375-5.346-1.375-1.077 0-2.061.095-2.893.294-.867.194-1.611.523-2.227.957l-.005.005c-.622.468-1.112 1.06-1.498 1.788-.392.733-.647 1.65-.774 2.72l-.024.225h3.054l.025-.17c.093-.622.24-1.106.475-1.49l.01-.01c.205-.388.465-.682.812-.916.348-.234.759-.389 1.268-.478a13.789 13.789 0 011.787-.125c1.552 0 2.595.284 3.236.757.622.459.954 1.246.954 2.422v1.126c-.364-.005-.697-.029-1.014-.051l-.121-.01h-.02c-.396 0-.798-.029-1.204-.064h-.02c-.21 0-.416-.005-.636-.015h-.02c-.225-.01-.465-.015-.719-.015-.235 0-.475-.005-.735-.015h-.044c-.274-.01-.568-.015-.881-.015-1.361 0-2.482.16-3.353.459h-.005c-.862.323-1.547.717-2.042 1.225a4.007 4.007 0 00-1.052 1.674 5.602 5.602 0 00-.26 1.754c0 .937.128 1.769.456 2.446.293.663.719 1.23 1.282 1.634.529.434 1.18.733 1.919.927.744.2 1.547.264 2.428.264 1.337 0 2.561-.23 3.657-.752a5.001 5.001 0 002.384-2.362v2.636h3.148V19.466c-.005-2.088-.68-3.657-2.002-4.594zm-1.15 9.656c-.059.742-.245 1.34-.529 1.778a2.982 2.982 0 01-1.146 1.046 5.49 5.49 0 01-1.635.523 11.73 11.73 0 01-1.821.125c-1.371 0-2.359-.19-2.971-.548-.573-.334-.872-.952-.872-1.963 0-.339.03-.663.142-.947l.01-.02c.078-.273.269-.557.587-.787l.01-.01c.279-.224.739-.408 1.361-.568.612-.124 1.474-.219 2.526-.219.299 0 .607.005.935.015h.044c.343.01.705.015 1.082.015.7.03 1.474.06 2.281.09v1.47h-.004zM83.668 22.061c1.131.145 2.051.464 2.722 1.017.68.623 1.038 1.544 1.033 2.8 0 .637-.132 1.2-.328 1.729a3.477 3.477 0 01-.994 1.42 5.051 5.051 0 01-1.66.96h-.004c-.686.235-1.46.33-2.35.33h-9.154V13.976H81.4c1.019 0 1.89.129 2.6.358h.01c.705.26 1.263.558 1.723.962.455.403.793.842.994 1.355.196.498.294 1.001.294 1.54 0 1.18-.324 2.132-.936 2.754l-.004.005c-.598.578-1.4.937-2.414 1.057v.054zm-2.482-5.296h-5.1v3.966h5.668c.852 0 1.405-.214 1.694-.588.289-.413.46-.881.46-1.474a3.28 3.28 0 00-.118-.813c-.048-.194-.17-.353-.352-.538-.186-.159-.46-.279-.832-.403a5.998 5.998 0 00-1.42-.15zm.28 10.762c.89 0 1.576-.155 2.1-.454.484-.274.743-.772.743-1.549 0-.628-.176-1.121-.519-1.53-.318-.373-.988-.597-2.075-.597h-5.63v4.13h5.38z" fill="#fff"/><path d="M93.038 24.97V13.977h-3.153v16.34h1.85l9.684-10.875v10.876h3.148V13.976h-1.851L93.038 24.97z" fill="#fff"/><path fill-rule="evenodd" clip-rule="evenodd" d="M62.437 13.497c2.247 0 4.048.449 5.346 1.375 1.316.937 1.992 2.506 1.992 4.594v10.85h-3.148v-2.635a4.986 4.986 0 01-2.384 2.362c-1.096.523-2.32.752-3.657.752-.88 0-1.684-.065-2.428-.264-.739-.194-1.39-.493-1.919-.927-.563-.403-.989-.971-1.282-1.634-.328-.677-.456-1.51-.456-2.446 0-.558.064-1.156.26-1.754a3.998 3.998 0 011.052-1.674c.5-.503 1.185-.896 2.037-1.22h.005c.871-.3 1.992-.459 3.353-.459.313 0 .607.005.881.015h.044c.26.01.5.015.735.015.254 0 .494.005.72.015h.019c.22.01.426.015.636.015h.02c.411.035.812.065 1.209.065h.02l.121.009c.317.022.65.046 1.014.05v-1.135c0-1.176-.333-1.963-.954-2.422-.642-.473-1.684-.757-3.236-.757-.676 0-1.293.06-1.787.125-.514.09-.92.244-1.268.478a2.437 2.437 0 00-.813.917l-.005.005v.01c-.23.383-.381.867-.474 1.49l-.025.169H55.01l.025-.225c.127-1.07.382-1.987.773-2.72.387-.727.877-1.32 1.498-1.788l.005-.005c.617-.434 1.361-.758 2.233-.952.832-.2 1.816-.294 2.893-.294zm3.662 12.81c.283-.44.465-1.037.528-1.78h.005v-1.47c-.808-.029-1.586-.059-2.281-.089-.377 0-.74-.005-1.082-.015h-.044c-.328-.01-.636-.015-.935-.015-1.053 0-1.914.095-2.526.22-.622.159-1.082.343-1.361.567l-.01.01c-.318.23-.509.514-.587.788l-.01.02c-.113.284-.142.607-.142.946 0 1.011.299 1.63.871 1.963.612.359 1.601.548 2.972.548.622 0 1.204-.03 1.82-.125a5.495 5.495 0 001.636-.523 2.943 2.943 0 001.145-1.046z" fill="#fff"/><path d="M165.152 24.97V13.977h-3.147v16.34h1.845l9.683-10.875v10.876h3.148V13.976h-1.85l-9.679 10.995z" fill="#fff"/></svg>